<svg xmlns="http://www.w3.org/2000/svg" xmlns:xlink="http://www.w3.org/1999/xlink" width="2000" zoomAndPan="magnify" viewBox="0 0 1500 1499.999933" height="2000" preserveAspectRatio="xMidYMid meet" version="1.0"><defs><g/><clipPath id="622638bdee"><rect x="0" width="1013" y="0" height="456"/></clipPath></defs><g transform="matrix(1, 0, 0, 1, 267, 463)"><g clip-path="url(#622638bdee)"><g fill="#000000" fill-opacity="1"><g transform="translate(1.33049, 355.253639)"><g><path d="M 121.5625 -139.40625 L 163.375 -139.40625 L 163.375 0 L 121.5625 0 L 121.5625 -14.21875 C 111.332031 -2.882812 97.390625 2.78125 79.734375 2.78125 C 60.773438 2.78125 44.695312 -4.28125 31.5 -18.40625 C 18.125 -32.53125 11.4375 -49.628906 11.4375 -69.703125 C 11.4375 -89.773438 18.125 -106.875 31.5 -121 C 44.695312 -135.125 60.773438 -142.1875 79.734375 -142.1875 C 97.390625 -142.1875 111.332031 -136.519531 121.5625 -125.1875 Z M 88.375 -34.84375 C 98.226562 -34.84375 106.59375 -38.285156 113.46875 -45.171875 C 120.15625 -51.859375 123.5 -60.035156 123.5 -69.703125 C 123.5 -79.367188 120.15625 -87.640625 113.46875 -94.515625 C 106.59375 -101.390625 98.226562 -104.828125 88.375 -104.828125 C 78.707031 -104.828125 70.53125 -101.484375 63.84375 -94.796875 C 56.96875 -87.910156 53.53125 -79.546875 53.53125 -69.703125 C 53.53125 -60.035156 56.875 -51.859375 63.5625 -45.171875 C 70.257812 -38.285156 78.53125 -34.84375 88.375 -34.84375 Z M 88.375 -34.84375 "/></g></g></g><g fill="#000000" fill-opacity="1"><g transform="translate(196.488021, 355.253639)"><g><path d="M 105.390625 -139.40625 L 150.546875 -139.40625 L 94.234375 0 L 54.640625 0 L -1.109375 -139.40625 L 43.765625 -139.40625 L 74.4375 -45.171875 Z M 105.390625 -139.40625 "/></g></g></g><g fill="#000000" fill-opacity="1"><g transform="translate(355.680778, 355.253639)"><g><path d="M 157.234375 -71.09375 L 156.6875 -61.609375 L 54.09375 -61.609375 C 55.382812 -52.128906 59.097656 -44.695312 65.234375 -39.3125 C 71.179688 -33.738281 78.429688 -30.953125 86.984375 -30.953125 C 101.847656 -30.953125 112.347656 -37.082031 118.484375 -49.34375 L 152.5 -35.40625 C 147.300781 -23.695312 138.9375 -14.40625 127.40625 -7.53125 C 115.695312 -0.65625 102.6875 2.78125 88.375 2.78125 C 63.65625 2.78125 44.695312 -4 31.5 -17.5625 C 18.125 -31.132812 11.4375 -48.515625 11.4375 -69.703125 C 11.4375 -90.328125 18.40625 -107.613281 32.34375 -121.5625 C 46.09375 -135.5 64.210938 -142.46875 86.703125 -142.46875 C 107.523438 -142.46875 124.441406 -135.960938 137.453125 -122.953125 C 150.460938 -109.941406 157.054688 -92.65625 157.234375 -71.09375 Z M 85.59375 -109.5625 C 71.46875 -109.5625 61.800781 -102.6875 56.59375 -88.9375 L 113.75 -88.9375 C 109.101562 -102.6875 99.71875 -109.5625 85.59375 -109.5625 Z M 85.59375 -109.5625 "/></g></g></g><g fill="#000000" fill-opacity="1"><g transform="translate(534.946918, 355.253639)"><g><path d="M 102.3125 -142.1875 C 116.257812 -142.1875 128.0625 -137.164062 137.71875 -127.125 C 147.382812 -116.90625 152.21875 -104.269531 152.21875 -89.21875 L 152.21875 0 L 110.125 0 L 110.125 -84.203125 C 110.125 -90.515625 108.078125 -95.625 103.984375 -99.53125 C 99.898438 -103.25 94.601562 -105.109375 88.09375 -105.109375 C 81.03125 -105.109375 75.175781 -103.0625 70.53125 -98.96875 C 65.882812 -94.695312 63.46875 -89.492188 63.28125 -83.359375 L 63.28125 0 L 21.1875 0 L 21.1875 -139.40625 L 63.28125 -139.40625 L 63.28125 -125.1875 C 73.320312 -136.519531 86.332031 -142.1875 102.3125 -142.1875 Z M 102.3125 -142.1875 "/></g></g></g><g fill="#000000" fill-opacity="1"><g transform="translate(715.606993, 355.253639)"><g><path d="M 99.53125 -139.40625 L 99.53125 -106.78125 L 73.328125 -106.78125 L 73.328125 0 L 31.21875 0 L 31.21875 -106.78125 L 5.015625 -106.78125 L 5.015625 -139.40625 L 31.21875 -139.40625 L 31.21875 -189.578125 L 73.328125 -189.578125 L 73.328125 -139.40625 Z M 99.53125 -139.40625 "/></g></g></g><g fill="#000000" fill-opacity="1"><g transform="translate(825.174044, 355.253639)"><g><path d="M 88.375 2.78125 C 67 2.78125 48.878906 -4.28125 34.015625 -18.40625 C 18.960938 -32.34375 11.4375 -49.441406 11.4375 -69.703125 C 11.4375 -89.960938 18.960938 -107.15625 34.015625 -121.28125 C 48.878906 -135.21875 67 -142.1875 88.375 -142.1875 C 109.9375 -142.1875 128.148438 -135.21875 143.015625 -121.28125 C 157.890625 -107.15625 165.328125 -89.960938 165.328125 -69.703125 C 165.328125 -49.441406 157.890625 -32.34375 143.015625 -18.40625 C 128.148438 -4.28125 109.9375 2.78125 88.375 2.78125 Z M 88.375 -34.84375 C 98.039062 -34.84375 106.3125 -38.285156 113.1875 -45.171875 C 120.0625 -51.859375 123.5 -60.035156 123.5 -69.703125 C 123.5 -79.367188 120.0625 -87.640625 113.1875 -94.515625 C 106.3125 -101.390625 98.039062 -104.828125 88.375 -104.828125 C 78.707031 -104.828125 70.53125 -101.484375 63.84375 -94.796875 C 56.96875 -87.910156 53.53125 -79.546875 53.53125 -69.703125 C 53.53125 -60.035156 56.875 -51.859375 63.5625 -45.171875 C 70.257812 -38.285156 78.53125 -34.84375 88.375 -34.84375 Z M 88.375 -34.84375 "/></g></g></g></g></g></svg>